<svg xmlns="http://www.w3.org/2000/svg" viewBox="0 0 27.44 27.44">
  <defs>
    <style>
      .cls-1 {
        fill: #142c49;
      }

      .cls-2 {
        fill: #70b0ff;
      }

      .cls-3 {
        fill: #b37c19;
        stroke: #ffc357;
        stroke-miterlimit: 10;
        stroke-width: 0.25px;
      }
    </style>
  </defs>
  <title>cloud-disconnect</title>
  <g id="background">
    <rect class="cls-1" width="27.44" height="27.44"/>
  </g>
  <g id="Layer_2" data-name="Layer 2">
    <path class="cls-2" d="M13.84,4.51a4.12,4.12,0,0,1,3.71,2.3l.25.49.5-.2a3.21,3.21,0,0,1,1.18-.22,3.27,3.27,0,0,1,3.26,3.26,4.81,4.81,0,0,1,0,.49l-.07.47.43.17a3.26,3.26,0,0,1-1.21,6.29h-16a3.27,3.27,0,0,1,0-6.53,3.44,3.44,0,0,1,.83.11l.59.16.14-.59a2.66,2.66,0,0,1,1.88-2l.4-.11,0-.4a4.14,4.14,0,0,1,4.13-3.74m0-.6A4.75,4.75,0,0,0,9.12,8.19a3.28,3.28,0,0,0-2.31,2.38,3.93,3.93,0,0,0-1-.13,3.86,3.86,0,1,0,0,7.71h16a3.85,3.85,0,0,0,1.44-7.43,5.46,5.46,0,0,0,0-.58,3.86,3.86,0,0,0-5.25-3.59A4.73,4.73,0,0,0,13.84,3.91Z"/>
    <path class="cls-1" d="M11.47,17.26h4.74v1.19H11.47Z"/>
    <path class="cls-2" d="M17.1,17.56H15.92a.3.3,0,1,0,0,.59H17.1a.3.3,0,1,0,0-.59Z"/>
    <path class="cls-2" d="M11.76,17.56H10.58a.3.3,0,1,0,0,.59h1.18a.3.3,0,1,0,0-.59Z"/>
  </g>
  <g id="disconnect">
    <polygon class="cls-3" points="18.51 13.91 18.51 12.81 14.43 12.81 13.25 12.81 9.25 12.81 9.25 13.91 13.25 13.91 13.25 20.53 10.28 20.53 13.84 24.09 17.4 20.53 14.43 20.53 14.43 13.91 18.51 13.91"/>
  </g>
</svg>
