<svg xmlns="http://www.w3.org/2000/svg" viewBox="0 0 27.44 27.69">
  <defs>
    <style>
      .cls-1, .cls-2 {
        fill: #142c49;
      }

      .cls-2 {
        stroke: #436a99;
      }

      .cls-2, .cls-3 {
        stroke-miterlimit: 10;
        stroke-width: 0.25px;
      }

      .cls-3 {
        fill: #b37c19;
        stroke: #ffc357;
      }
    </style>
  </defs>
  <title>iphone-functional</title>
  <g id="background">
    <rect class="cls-1" y="0.13" width="27.44" height="27.44"/>
  </g>
  <g id="iphone">
    <path id="border" class="cls-2" d="M14.83,23.22a9.39,9.39,0,0,1,0-18.78,9.27,9.27,0,0,1,2.9.46V2a2,2,0,0,0-2-2H4.19a2,2,0,0,0-2,2V25.44a2,2,0,0,0,2,2H15.74a2,2,0,0,0,2-2V22.75A9.27,9.27,0,0,1,14.83,23.22Z" transform="translate(0 0.13)"/>
  </g>
  <g id="power">
    <path class="cls-3" d="M23.12,13.83a8.3,8.3,0,1,0-8.29,8.29A8.3,8.3,0,0,0,23.12,13.83Zm-7.48,0a.79.79,0,1,1-1.57,0V9.72a.79.79,0,1,1,1.57,0Zm4.54,0A5.36,5.36,0,1,1,11,10.05a.8.8,0,0,1,.56-.23.78.78,0,0,1,.55.23.79.79,0,0,1,0,1.12,3.78,3.78,0,0,0,2.68,6.45,3.78,3.78,0,0,0,2.67-6.45.79.79,0,1,1,1.11-1.12A5.33,5.33,0,0,1,20.18,13.84Z" transform="translate(0 0.13)"/>
  </g>
</svg>
