<svg xmlns="http://www.w3.org/2000/svg" viewBox="0 0 27.44 27.44">
  <defs>
    <style>
      .cls-1, .cls-2 {
        fill: #142c49;
      }

      .cls-2 {
        stroke: #436a99;
      }

      .cls-2, .cls-3 {
        stroke-miterlimit: 10;
        stroke-width: 0.15px;
      }

      .cls-3 {
        fill: #b37c19;
        stroke: #ffc357;
      }
    </style>
  </defs>
  <title>iphone-model</title>
  <g id="background">
    <rect class="cls-1" width="27.44" height="27.44"/>
  </g>
  <g id="iphone1">
    <path id="case" class="cls-2" d="M8.56.52H3.11a.94.94,0,0,0-.94.94V12.52a1,1,0,0,0,.94,1H8.56a1,1,0,0,0,.94-1V1.46A.94.94,0,0,0,8.56.52Zm.24,10"/>
    <rect id="screen" class="cls-2" x="2.88" y="2.11" width="5.92" height="8.36"/>
    <path id="button" class="cls-2" d="M5.84,12.54a.61.61,0,1,1,.6-.61A.6.6,0,0,1,5.84,12.54Z"/>
    <path id="speaker" class="cls-2" d="M4.49,1.09H7.18c.07,0,.12.11.12.23s0,.23-.12.23H4.49c-.07,0-.12-.1-.12-.23S4.42,1.09,4.49,1.09Z"/>
  </g>
  <g id="iphone6">
    <path id="case-2" data-name="case" class="cls-2" d="M24.33,14H18.88a.94.94,0,0,0-.94.94V26a.94.94,0,0,0,.94.94h5.45a.94.94,0,0,0,.94-.94V14.92A.94.94,0,0,0,24.33,14Zm.24,10"/>
    <rect id="screen-2" data-name="screen" class="cls-2" x="18.65" y="15.57" width="5.92" height="8.36"/>
    <path id="button-2" data-name="button" class="cls-2" d="M21.61,26a.6.6,0,1,1,.6-.6A.6.6,0,0,1,21.61,26Z"/>
    <path id="speaker-2" data-name="speaker" class="cls-2" d="M20.26,14.55H23c.07,0,.12.1.12.23S23,15,23,15H20.26c-.07,0-.12-.1-.12-.22S20.19,14.55,20.26,14.55Z"/>
  </g>
  <g id="iphone4">
    <path id="case-3" data-name="case" class="cls-2" d="M8.56,14H3.11a.94.94,0,0,0-.94.94V26a.94.94,0,0,0,.94.94H8.56A.94.94,0,0,0,9.5,26V14.92A.94.94,0,0,0,8.56,14Zm.24,10"/>
    <rect id="screen-3" data-name="screen" class="cls-2" x="2.88" y="15.57" width="5.92" height="8.36"/>
    <path id="button-3" data-name="button" class="cls-2" d="M5.84,26a.6.6,0,1,1,.6-.6A.6.6,0,0,1,5.84,26Z"/>
    <path id="speaker-3" data-name="speaker" class="cls-2" d="M4.49,14.55H7.18c.07,0,.12.1.12.23s0,.22-.12.22H4.49c-.07,0-.12-.1-.12-.22S4.42,14.55,4.49,14.55Z"/>
  </g>
  <g id="iphone5">
    <path id="case-4" data-name="case" class="cls-3" d="M16.44,14H11a.94.94,0,0,0-.94.94V26a.94.94,0,0,0,.94.94h5.44a1,1,0,0,0,.95-.94V14.92A1,1,0,0,0,16.44,14Zm.24,10"/>
    <rect id="screen-4" data-name="screen" class="cls-3" x="10.76" y="15.57" width="5.92" height="8.36"/>
    <path id="button-4" data-name="button" class="cls-3" d="M13.72,26a.6.6,0,1,1,.6-.6A.6.6,0,0,1,13.72,26Z"/>
    <path id="speaker-4" data-name="speaker" class="cls-3" d="M12.38,14.55h2.69c.06,0,.12.1.12.23s-.06.22-.12.22H12.38c-.07,0-.13-.1-.13-.22S12.31,14.55,12.38,14.55Z"/>
  </g>
  <g id="iphone2">
    <path id="case-5" data-name="case" class="cls-2" d="M16.44.52H11a.94.94,0,0,0-.94.94V12.52a1,1,0,0,0,.94,1h5.44a1,1,0,0,0,.95-1V1.46A1,1,0,0,0,16.44.52Zm.24,10"/>
    <rect id="screen-5" data-name="screen" class="cls-2" x="10.76" y="2.11" width="5.92" height="8.36"/>
    <path id="button-5" data-name="button" class="cls-2" d="M13.72,12.54a.61.61,0,1,1,.6-.61A.6.6,0,0,1,13.72,12.54Z"/>
    <path id="speaker-5" data-name="speaker" class="cls-2" d="M12.38,1.09h2.69c.06,0,.12.11.12.23s-.06.23-.12.23H12.38c-.07,0-.13-.1-.13-.23S12.31,1.09,12.38,1.09Z"/>
  </g>
  <g id="iphone3">
    <path id="case-6" data-name="case" class="cls-2" d="M24.33.52H18.88a.94.94,0,0,0-.94.94V12.52a1,1,0,0,0,.94,1h5.45a1,1,0,0,0,.94-1V1.46A.94.94,0,0,0,24.33.52Zm.23,10"/>
    <rect id="screen-6" data-name="screen" class="cls-2" x="18.65" y="2.11" width="5.92" height="8.36"/>
    <path id="button-6" data-name="button" class="cls-2" d="M21.61,12.54a.61.61,0,1,1,.6-.61A.61.61,0,0,1,21.61,12.54Z"/>
    <path id="speaker-6" data-name="speaker" class="cls-2" d="M20.26,1.09H23c.07,0,.12.11.12.23s-.05.23-.12.23H20.26c-.07,0-.12-.1-.12-.23S20.19,1.09,20.26,1.09Z"/>
  </g>
</svg>
