<svg id="Layer_1" data-name="Layer 1" xmlns="http://www.w3.org/2000/svg" viewBox="0 0 27.44 27.44">
  <defs>
    <style>
      .cls-1 {
        fill: #142c49;
      }

      .cls-2 {
        fill: #436a99;
      }

      .cls-3 {
        fill: #70b0ff;
      }

      .cls-4 {
        fill: #b37c19;
        stroke: #ffc357;
        stroke-miterlimit: 10;
        stroke-width: 0.25px;
      }
    </style>
  </defs>
  <title>cloud-disconnect</title>
  <g id="background">
    <rect class="cls-1" width="27.44" height="27.44"/>
  </g>
  <g id="cloud-bg">
    <path id="cloud" class="cls-1" d="M16.34,17.8h6.2a3.19,3.19,0,0,0,3-2.14,3.31,3.31,0,0,0-1.75-4.39l-.45-.18.07-.48a4.34,4.34,0,0,0,0-.51,3.45,3.45,0,0,0-3.35-3.49,6.26,6.26,0,0,0-1.29.18L18.26,7,18,6.64A4.29,4.29,0,0,0,9.91,8.08V8.5l-.41.11a2.75,2.75,0,0,0-1.95,2.08L7.47,11,6.9,11a5.28,5.28,0,0,0-1.32,0,3.52,3.52,0,0,0-3.23,3.31,3.39,3.39,0,0,0,3.2,3.57H16.34Z"/>
    <path id="cloud-2" data-name="cloud" class="cls-2" d="M5.48,18.34"/>
  </g>
  <path id="cloud-3" data-name="cloud" class="cls-3" d="M23.59,10.72a5.61,5.61,0,0,0,0-.58,3.86,3.86,0,0,0-5.25-3.59A4.68,4.68,0,0,0,9.46,8.19a3.29,3.29,0,0,0-2.31,2.38,3.76,3.76,0,0,0-1-.13,3.86,3.86,0,0,0-.44,7.71h0a2.54,2.54,0,0,0,.39,0H12.1a.3.3,0,0,0,.11-.59H5.87a3.27,3.27,0,0,1,0-6.53,6.75,6.75,0,0,1,1.19.11l.59.16.14-.59a2.67,2.67,0,0,1,1.88-2l.4-.11V8.2a4.13,4.13,0,0,1,7.82-1.39l.25.49.5-.2a3.21,3.21,0,0,1,1.18-.22,3.27,3.27,0,0,1,3.26,3.26,4,4,0,0,1,0,.49L23,11.1l.43.17a3.26,3.26,0,0,1-1.21,6.29h-6a.3.3,0,1,0-.11.59.2.2,0,0,0,.11,0h5.89a3.85,3.85,0,0,0,1.44-7.43Z"/>
  <g id="disconnect">
    <polygon class="cls-4" points="18.85 13.91 18.85 12.81 14.77 12.81 13.59 12.81 9.59 12.81 9.59 13.91 13.59 13.91 13.59 20.53 10.62 20.53 14.18 24.09 17.74 20.53 14.77 20.53 14.77 13.91 18.85 13.91"/>
  </g>
</svg>
