<svg xmlns="http://www.w3.org/2000/svg" viewBox="0 0 27.44 27.69">
  <defs>
    <style>
      .cls-1, .cls-2 {
        fill: #142c49;
      }

      .cls-2, .cls-3 {
        stroke: #70b0ff;
      }

      .cls-2, .cls-3, .cls-4 {
        stroke-miterlimit: 10;
        stroke-width: 0.25px;
      }

      .cls-3 {
        fill: #436a99;
      }

      .cls-4 {
        fill: #b37c19;
        stroke: #ffc357;
      }
    </style>
  </defs>
  <title>iphone-capacity</title>
  <g id="background">
    <rect class="cls-1" y="0.09" width="27.44" height="27.44"/>
  </g>
  <g id="iphone">
    <path class="cls-2" d="M10.56,20.53V6.87a1.08,1.08,0,0,1,1.09-1.08h9.54V2a2,2,0,0,0-2-2H7.65a2,2,0,0,0-2,2V25.48a2,2,0,0,0,2,2H19.19a2,2,0,0,0,2-2V21.61H11.65A1.08,1.08,0,0,1,10.56,20.53Z" transform="translate(0 0.09)"/>
  </g>
  <g id="Layer_3" data-name="Layer 3">
    <rect class="cls-3" x="11.91" y="7.25" width="12.52" height="3.54" rx="0.66"/>
    <path class="cls-4" d="M22.13,15.52l-9.54.06a.66.66,0,0,1-.66-.65V12.7a.67.67,0,0,1,.66-.66L22.13,12a.66.66,0,0,1,.66.66v2.23A.66.66,0,0,1,22.13,15.52Z" transform="translate(0 0.09)"/>
    <rect class="cls-3" x="11.93" y="16.96" width="9.26" height="3.54" rx="0.66"/>
  </g>
</svg>
