<svg xmlns="http://www.w3.org/2000/svg" viewBox="0 0 27.44 27.69">
  <defs>
    <style>
      .cls-1, .cls-3 {
        fill: #142c49;
      }

      .cls-2 {
        fill: #b37c19;
        stroke: #ffc357;
      }

      .cls-2, .cls-3 {
        stroke-miterlimit: 10;
        stroke-width: 0.25px;
      }

      .cls-3 {
        stroke: #70b0ff;
      }
    </style>
  </defs>
  <title>iphone-functional</title>
  <g id="background">
    <rect class="cls-1" y="0.13" width="27.44" height="27.44"/>
  </g>
  <g id="power">
    <path class="cls-2" d="M21.78,13.83a7,7,0,1,0-7,7A7,7,0,0,0,21.78,13.83Zm-6.27,0a.66.66,0,0,1-1.32,0V10.38a.66.66,0,0,1,1.32,0Zm3.81,0a4.5,4.5,0,1,1-7.67-3.18.66.66,0,0,1,.47-.19.62.62,0,0,1,.46.19.65.65,0,0,1,0,.93,3.18,3.18,0,1,0,4.49,0,.66.66,0,0,1,.93-.93A4.47,4.47,0,0,1,19.32,13.84Z" transform="translate(0 0.13)"/>
    <path class="cls-3" d="M14.83,22.33a8.51,8.51,0,1,1,2.9-16.49V2a2,2,0,0,0-2-2H4.19a2,2,0,0,0-2,2V25.44a2,2,0,0,0,2,2H15.74a2,2,0,0,0,2-2V21.81A8.47,8.47,0,0,1,14.83,22.33Z" transform="translate(0 0.13)"/>
  </g>
</svg>
