<svg xmlns="http://www.w3.org/2000/svg" viewBox="0 0 27.44 27.44">
  <defs>
    <style>
      .cls-1, .cls-3 {
        fill: #142c49;
      }

      .cls-2 {
        fill: #b37c19;
        stroke: #ffc357;
      }

      .cls-2, .cls-3 {
        stroke-miterlimit: 10;
        stroke-width: 0.25px;
      }

      .cls-3 {
        stroke: #70b0ff;
      }
    </style>
  </defs>
  <title>iphone-functional</title>
  <g id="background">
    <rect class="cls-1" width="27.44" height="27.44"/>
  </g>
  <g id="power">
    <path class="cls-2" d="M24.85,13.82a6.64,6.64,0,1,0-6.63,6.64A6.64,6.64,0,0,0,24.85,13.82Zm-6,0a.63.63,0,0,1-1.26,0V10.54a.63.63,0,1,1,1.26,0Zm3.63,0a4.29,4.29,0,1,1-7.31-3,.62.62,0,0,1,.44-.18.66.66,0,0,1,.45.18.64.64,0,0,1,0,.89,3,3,0,1,0,4.28,0,.62.62,0,0,1,0-.89.64.64,0,0,1,.89,0A4.26,4.26,0,0,1,22.5,13.83Z"/>
    <path class="cls-3" d="M18.22,21.93a8.11,8.11,0,0,1,0-16.22,8,8,0,0,1,2.77.5V2.54A1.91,1.91,0,0,0,19.08.63h-11A1.92,1.92,0,0,0,6.16,2.54V24.91a1.91,1.91,0,0,0,1.91,1.9h11A1.9,1.9,0,0,0,21,24.91V21.43A8,8,0,0,1,18.22,21.93Z"/>
  </g>
</svg>
