<svg xmlns="http://www.w3.org/2000/svg" viewBox="0 0 27.44 27.44">
  <defs>
    <style>
      .cls-1, .cls-2 {
        fill: #142c49;
      }

      .cls-2 {
        stroke: #70b0ff;
      }

      .cls-2, .cls-3 {
        stroke-miterlimit: 10;
        stroke-width: 0.25px;
      }

      .cls-3 {
        fill: #b37c19;
        stroke: #ffc357;
      }
    </style>
  </defs>
  <title>iphone-screen</title>
  <g id="background">
    <rect class="cls-1" width="27.44" height="27.44"/>
  </g>
  <g id="iphone">
    <path id="case" class="cls-2" d="M19.31.45H8.14A1.93,1.93,0,0,0,6.2,2.38V25.06A1.94,1.94,0,0,0,8.14,27H19.31a1.94,1.94,0,0,0,1.93-1.94V2.38A1.93,1.93,0,0,0,19.31.45Zm.48,20.41"/>
    <rect id="screen" class="cls-3" x="7.65" y="3.71" width="12.14" height="17.15"/>
    <path id="button" class="cls-2" d="M13.72,25.09A1.24,1.24,0,1,1,15,23.85,1.24,1.24,0,0,1,13.72,25.09Z"/>
    <path id="speaker" class="cls-2" d="M11,1.62h5.52c.14,0,.25.21.25.47s-.11.46-.25.46H11c-.14,0-.25-.21-.25-.46S10.82,1.62,11,1.62Z"/>
  </g>
</svg>
