<svg xmlns="http://www.w3.org/2000/svg" viewBox="0 0 27.44 27.44">
  <defs>
    <style>
      .cls-1 {
        fill: #142c49;
      }

      .cls-2 {
        fill: none;
        stroke: #436a99;
        stroke-miterlimit: 10;
        stroke-width: 0.25px;
      }

      .cls-3 {
        fill: #436a99;
      }

      .cls-4 {
        fill: #b37c19;
      }

      .cls-5 {
        fill: #ffc357;
      }
    </style>
  </defs>
  <title>mail</title>
  <g id="background">
    <rect class="cls-1" width="27.44" height="27.44"/>
  </g>
  <g id="iphone">
    <path class="cls-2" d="M13.72,2.4,2,11.14V25.05H25.43V11.14Z"/>
  </g>
  <g id="Layer_4" data-name="Layer 4">
    <polygon class="cls-3" points="11.48 17.21 2.83 23.9 2.83 11.42 11.48 17.21"/>
    <polygon class="cls-3" points="3.49 24.34 13.72 16.43 23.95 24.34 3.49 24.34"/>
    <polygon class="cls-3" points="24.61 11.42 24.61 23.9 15.96 17.21 24.61 11.42"/>
  </g>
  <g id="Layer_5" data-name="Layer 5">
    <polygon class="cls-4" points="3.49 11.02 13.72 3.26 23.95 11.02 15.46 16.72 13.72 15.43 12.11 16.66 3.49 11.02"/>
  </g>
  <g id="Layer_3" data-name="Layer 3">
    <path class="cls-5" d="M16.65,12.48a2.46,2.46,0,0,1-1.08.78,4.51,4.51,0,0,1-1.6.26,4.4,4.4,0,0,1-1.72-.31,2.38,2.38,0,0,1-1.16-1,2.78,2.78,0,0,1-.42-1.5A3.66,3.66,0,0,1,11,9.11a2.74,2.74,0,0,1,1.11-1.22,3.57,3.57,0,0,1,1.79-.43,2.76,2.76,0,0,1,1.94.65,2.1,2.1,0,0,1,.69,1.6,2.21,2.21,0,0,1-.25,1,2.12,2.12,0,0,1-.64.8.89.89,0,0,1-.48.22.13.13,0,0,1-.11,0,.2.2,0,0,1,0-.14,1.81,1.81,0,0,1,0-.35l.59-2.79h-1l-.1.44a1.11,1.11,0,0,0-1-.54,1.87,1.87,0,0,0-1.6.93,2.89,2.89,0,0,0-.51,1.67,1.64,1.64,0,0,0,.42,1.18,1.49,1.49,0,0,0,2.13,0,.57.57,0,0,0,.22.33.83.83,0,0,0,.49.11,2.37,2.37,0,0,0,2-1,2.85,2.85,0,0,0,.61-1.79,3.13,3.13,0,0,0-.4-1.54A2.67,2.67,0,0,0,15.7,7.13,3.78,3.78,0,0,0,14,6.74a4.29,4.29,0,0,0-2.06.48,3.35,3.35,0,0,0-1.42,1.42,4.35,4.35,0,0,0-.52,2,3.75,3.75,0,0,0,.46,1.84,2.85,2.85,0,0,0,1.39,1.28,5.2,5.2,0,0,0,2.22.44,4.46,4.46,0,0,0,2.25-.52,2.79,2.79,0,0,0,1.19-1.24ZM14.2,10.79a2,2,0,0,1-.36.7.9.9,0,0,1-.29.24.78.78,0,0,1-.42.11.64.64,0,0,1-.49-.23,1.08,1.08,0,0,1-.2-.73,2.88,2.88,0,0,1,.14-.85A1.67,1.67,0,0,1,13,9.29.92.92,0,0,1,13.63,9a.66.66,0,0,1,.51.24,1,1,0,0,1,.21.68A2.67,2.67,0,0,1,14.2,10.79Z"/>
  </g>
</svg>
